<mxfile host="app.diagrams.net" modified="2024-06-04T11:10:23.121Z" agent="Mozilla/5.0 (Windows NT 10.0; Win64; x64) AppleWebKit/537.36 (KHTML, like Gecko) Chrome/125.0.0.0 Safari/537.36" etag="dOQMWyAqf7FjZcGME4dc" version="24.4.13" type="device">
  <diagram name="Страница — 1" id="CpVI97BDcdhgxN_JvHFG">
    <mxGraphModel dx="1434" dy="780" grid="1" gridSize="10" guides="1" tooltips="1" connect="1" arrows="1" fold="1" page="1" pageScale="1" pageWidth="827" pageHeight="1169" math="0" shadow="0">
      <root>
        <mxCell id="0" />
        <mxCell id="1" parent="0" />
        <UserObject label="&lt;span style=&quot;font-size:14.0pt;mso-bidi-font-size:10.0pt;&#xa;font-family:&amp;quot;Times New Roman&amp;quot;,serif;mso-fareast-font-family:&amp;quot;Times New Roman&amp;quot;;&#xa;mso-ansi-language:RU;mso-fareast-language:EN-US;mso-bidi-language:AR-SA&quot;&gt;&lt;img width=&quot;571&quot; height=&quot;505&quot; src=&quot;file:///C:/Users/329197~1/AppData/Local/Temp/msohtmlclip1/01/clip_image002.gif&quot;&gt;&lt;/span&gt;" link="&lt;span style=&quot;font-size:14.0pt;mso-bidi-font-size:10.0pt;&#xa;font-family:&amp;quot;Times New Roman&amp;quot;,serif;mso-fareast-font-family:&amp;quot;Times New Roman&amp;quot;;&#xa;mso-ansi-language:RU;mso-fareast-language:EN-US;mso-bidi-language:AR-SA&quot;&gt;&lt;img width=&quot;571&quot; height=&quot;505&quot; src=&quot;file:///C:/Users/329197~1/AppData/Local/Temp/msohtmlclip1/01/clip_image002.gif&quot;&gt;&lt;/span&gt;" id="zgdZ8VGbcJxUqUmeLJxT-1">
          <mxCell style="text;whiteSpace=wrap;html=1;" vertex="1" parent="1">
            <mxGeometry x="150" y="250" width="560" height="530" as="geometry" />
          </mxCell>
        </UserObject>
      </root>
    </mxGraphModel>
  </diagram>
</mxfile>
